<svg viewBox="0 0 1185.2 666.7" xml:space="preserve" xmlns="http://www.w3.org/2000/svg">
  <g style="fill:#274187;fill-opacity:1">
    <path d="M3028 2284c-22 3-11 15-16 22-16 21-36 28-88 30h-28c28 30 2 50-72 57-16 1-15 7-21 11-25 16-44 32-50 53-5 17-64 12-82 28-2 2-7 2-15 2h-35l-18 2a138 138 0 0 1-57-13c-183 102-371 203-398 203-45 0-270-87-389-125-6 3-15 5-28 5l-15-1h-10c-20 0-39 5-48 20-8 15-38 27-26 45 1 1-3 3-5 4-23 15-53 27-89 34-15 2-30 4-45 4-17 0-35-2-52-9-12-6-29-10-46-10-13 0-26 2-39 9-10 5-23 5-36 6h-10c-24 0-46-5-68-7-18 10-48 12-66 23-23 13-59 18-94 25-21 4-41 5-61 5l-14-1a2019 2019 0 0 0-33 1h-21l-47 37h4479c-11-5-22-10-35-14-75-26-120-63-182-94-27-25-69-46-88-73l-9-11c-51 30-92 49-109 49l-6-1c-22-8-82-66-145-127l-32 4c-27 7-52 11-75 11-28 0-53-6-77-19l-11-2c-9-2-16-6-12-10 18-18-10-29-26-42-5-4-9-6-13-6-3 0-7 2-10 5-10 10-24 12-39 12l-48-3c-44-3-54-23-69-39l-41-16-27 6a114 114 0 0 1-54 2c-10-2-20-2-30-2l-30 1-33 1h-2c9 6 18 6 27 6h5l9 1c14 2 22 4 10 11a239 239 0 0 1-132 10c-23-9-48-5-72-7l-10-1-27 2-27 1c-20 0-37-4-44-19l-15-1c-34-2-43-10-42-24 1-21-7-32-36-38-52 39-96 66-120 69l-16 1c-65 0-235-29-400-58-98-17-193-34-264-45" fill="#c7dff4" style="fill:#274187;fill-opacity:1" transform="matrix(.13163 0 0 -.13162 8 661)"/>
    <path d="M1492 2529c-148 0-314 6-330 10-9 3-58 44-126 101 16 2 33 2 51 5a355 355 0 0 0 67 2h21c23 0 46 1 67 7a28 28 0 0 1 17-3l41 3c26 0 50-4 74-11 11-3 23-11 36-11l6 1 21 2c17 0 30-4 46-10 23-7 40-15 48-26 27-37 48-45 135-45h9l11-1c20-1 35-3 46-7l-24-7c-34-7-121-10-216-10m-250 125" fill="#cfe5f5" style="fill:#274187;fill-opacity:1" transform="matrix(.13163 0 0 -.13162 8 661)"/>
    <path d="M1732 2546a146 146 0 0 1-57 8h-9c-87 0-108 8-135 45-8 11-25 19-48 27-16 5-29 9-46 9l-21-2-6-1c-13 0-25 8-36 11a255 255 0 0 1-119 8c-5 0-10 1-13 3 22 2 44 7 68 7h10c13-1 26-1 36-6 13-7 26-9 39-9 17 0 34 4 46 10 17 7 35 9 52 9 15 0 30-2 45-4 36-7 66-19 89-34 2-1 6-3 5-4-12-18 18-30 26-45 9-15 28-20 48-20l10 1h15c13 0 22-2 28-5l-27-8" fill="#cce3f5" style="fill:#274187;fill-opacity:1" transform="matrix(.13163 0 0 -.13162 8 661)"/>
    <path d="M8945 2574c-387 149-1316 472-1530 526-161 40-856-66-1393-158-365-63-657-119-657-119s-150 70-330 130-350 20-480 60-390 500-460 490-780-520-870-470-240 170-380 120-500-300-580-270-640 540-740 540-440-130-820-188c-296-44-641-19-780-6v-774c137 12 2610-312 3020-312 361 0 5030-49 6000 225v205" style="fill:#274187;fill-opacity:1" transform="matrix(.13163 0 0 -.13162 8 661)"/>
    <path d="M111 3431c1-10 7-26 12-33l-6-1c1-8 16-30 16-30-4 0-19 7-19 7 6-11 26-28 27-28-10 0-21 8-21 8 11-18 34-34 34-35-19-2-26 6-26 6 9-17 25-29 25-29-16 2-30 19-30 19 3-12 19-31 19-31-13 5-19 13-19 13 13-30 50-44 50-44-11-6-26 3-26 3 3-7 13-17 14-17-13 4-40 25-40 25 21-37 80-69 80-70-28-3-39 11-39 11 4-7 20-25 20-25-18 8-43 36-43 36 6-23 37-56 37-56-36 20-41 27-41 27 14-29 59-62 59-62-8 1-17 6-17 6 9-13 39-30 39-30-40 3-70 36-70 36 23-41 88-69 88-70a58 58 0 0 0-70 21c10-24 35-60 35-60-19 8-34 24-34 24 14-28 52-50 52-50-38 7-69 31-69 31 43-56 110-52 110-52-11-11-53-9-53-9 8-9 28-21 28-21-22 2-37 12-37 12 19-29 53-42 53-42-18-1-36 6-36 6s2-10 29-22c12-5 28-8 37-8-50-16-93 5-93 5 21-25 57-41 57-41-52 3-61 14-61 14 4-12 20-22 20-22-27 8-48 26-48 26 13-24 43-37 43-37-51 7-70 25-70 25 7-12 18-22 18-22-49 22-51 35-51 35-38-43-79-47-79-47 16 7 40 32 40 32-21-6-50-8-50-8 21 6 43 29 43 29-62-20-92-16-92-16 42 9 51 26 51 26-33-11-50-1-49-1 47 7 68 33 68 33-51-19-61-13-61-13 22 3 35 20 35 20-32-6-57-5-57-5 72 23 84 53 84 53-30-12-61-13-61-13 42 14 61 39 61 39-23-10-32-7-32-7 10 2 12 10 12 10H6c-24-7-50-9-50-9 70 27 103 60 103 60-31-12-50-16-50-16 24 9 37 30 37 30-34-14-56-16-56-16 27 10 42 32 42 32l-15-2c21 8 45 33 45 33-21-13-34-18-34-18 11 8 10 14 10 14-9-4-28-7-28-7 31 10 58 41 57 41-12-7-24-11-24-11 10 6 8 13 9 13l-30-9c32 15 56 47 56 47l-21-10c7 5 8 12 8 12-14-8-26-9-26-9 6 2 11 10 11 10-17-4-18 0-18 0 43 15 51 46 51 47-14-10-20-9-20-9 7 4 9 11 9 11-12-3-18 1-18 1 10 1 33 23 33 23-5-2-10 2-10 2 3 4 21 24 16 23-5-2-21-3-21-3l11 7 8 8-10-2c-5-3-20-2-16 0 5 2 14 9 9 8-6-1-12 3-12 3 17 8 31 34 31 35l-8-6c1 2 12 22 9 19-4-2-20-11-19-9 2 3 25 34 29 46l-15-9s10 11 12 19l10 20M5609 3199c1-14 9-37 17-46l-9-2c2-11 23-42 23-42-5 0-27 9-27 9 9-16 37-39 37-40-14 2-28 12-28 12 15-25 47-48 47-48-27-3-36 8-36 8 12-25 34-42 34-42-22 3-42 28-42 28 5-17 27-44 27-44-18 6-27 18-27 18 19-42 71-62 71-62-16-9-36 4-36 4 4-10 19-24 19-24-18 6-56 35-55 35 29-51 112-97 112-98-40-4-55 15-55 15 6-10 28-35 28-35-25 12-61 50-61 50 9-31 52-78 53-79-51 29-58 39-58 39 19-40 83-87 83-88-12 2-25 9-25 9 14-19 56-42 56-43-57 6-99 51-99 52 32-59 125-98 125-99a82 82 0 0 0-100 30c15-35 50-85 50-85-26 11-49 34-49 34 20-39 74-71 75-71-54 9-99 44-98 44 61-80 156-73 155-74-15-15-74-12-74-13 10-13 39-29 39-29-31 4-52 17-52 17 26-40 75-60 75-60-26-1-51 9-51 9s3-14 41-31c16-7 38-10 51-11-70-23-131 7-131 7 30-34 80-58 80-58-72 4-85 20-85 20 6-17 27-31 28-31-39 11-67 37-67 37 18-34 60-52 60-52-72 10-98 35-98 35 9-17 24-31 24-31-68 30-71 50-71 50-54-62-111-67-111-67 22 9 57 45 56 46-30-9-71-12-71-12 30 8 61 41 61 41-87-28-130-23-130-24 59 13 72 37 72 37-47-15-70-1-70-1 67 10 97 47 97 47-72-28-86-19-85-19 30 5 48 29 48 29-45-9-80-7-80-7 102 32 119 74 119 74-42-17-87-18-87-18 59 19 86 55 86 55-33-14-44-10-44-10 13 3 16 14 16 14h-2c-33-10-69-13-69-13 98 38 145 85 145 85-44-17-71-23-71-23 34 14 52 43 52 43-48-19-79-22-79-22 38 14 60 45 59 45l-21-3c30 12 64 46 64 46-30-19-49-25-49-25 17 11 15 19 15 19-12-5-39-9-39-9 43 14 81 58 80 58-17-10-34-16-34-16 14 9 12 19 12 19l-41-14c44 22 78 66 78 66l-29-13c9 7 11 17 11 17-19-11-36-13-36-13 8 3 15 13 14 13-23-4-25 2-25 2 61 20 72 64 72 65-20-14-28-13-28-13 10 6 12 16 12 16-17-4-25 2-25 2 14 2 47 32 47 31-8-2-14 4-14 4 5 6 30 34 23 32l-30-5a80 80 0 0 1 26 22s-7 1-14-3-28-3-22 0c7 3 20 13 13 12-8-2-17 3-17 3 24 12 44 49 44 49 0 1-14-10-12-7s18 31 13 27c-5-3-29-16-27-13s35 48 41 65l-21-13s14 16 17 27c0 0 13 31 14 28" style="fill:#274187;fill-opacity:1" transform="matrix(.13163 0 0 -.13162 8 661)"/>
    <path d="M5335 3277c2-13 9-35 16-43l-8-1c2-11 21-39 21-39-5 0-24 8-24 8 7-14 34-36 34-36-13 1-27 10-26 10 13-22 43-44 43-44-25-3-33 8-33 8 11-23 31-39 31-39-20 3-38 26-38 26 4-16 24-41 24-41-16 6-25 17-25 17 18-38 65-57 65-57-14-8-33 3-33 3 4-8 18-22 18-22-17 6-51 33-51 33 27-48 103-90 103-91-36-3-50 14-50 15 5-10 26-32 26-32-23 10-57 45-57 45 9-29 49-72 49-72-47 26-53 35-53 35 17-37 76-80 76-81l-22 8c12-17 51-38 51-39-53 5-92 47-91 48 30-54 115-90 114-91a75 75 0 0 0-91 27c14-31 46-78 46-78-24 10-45 31-45 31 18-36 68-65 68-65-49 9-90 41-90 41 56-74 144-68 143-68-14-14-68-12-68-12 10-12 36-27 36-27-29 3-48 15-48 15 24-36 69-54 69-54-24-2-47 7-47 7 0 1 3-12 38-28 14-6 35-9 47-10-64-21-121 7-121 7 28-32 74-54 74-54-67 4-79 19-79 19 6-16 26-29 26-29-35 10-62 34-62 34 17-31 56-48 56-48-66 9-90 32-90 32 8-16 22-28 22-28-62 28-66 46-66 46-49-57-102-61-101-61 20 8 51 41 51 41-27-8-65-11-65-11 27 8 56 38 56 38-80-26-120-21-120-21 55 11 66 33 66 33-43-13-64-1-63-1 61 9 88 44 88 44-66-26-78-17-78-18 28 4 44 27 44 27-41-9-73-7-73-7 93 29 109 69 109 69-39-16-80-17-80-17 55 18 79 50 79 50-30-13-41-9-41-9 13 3 15 13 15 13h-1c-30-9-64-12-64-12 90 35 134 78 133 78-39-15-65-21-65-21 31 13 48 39 48 40-44-18-73-21-73-21 35 13 55 42 55 42l-20-3c28 11 59 43 59 43-27-18-45-23-45-23 15 9 14 17 14 17-11-5-36-8-36-8 40 12 74 53 74 53-16-9-32-15-32-15 13 8 11 17 11 18l-37-13c40 20 72 61 71 61l-26-12c8 6 10 15 10 15-18-10-34-12-34-12 8 3 14 13 14 13-22-5-24 1-24 1 57 19 67 59 67 60-18-13-26-12-26-12 10 5 12 15 12 15-16-4-24 1-24 1 13 2 43 30 43 29-7-2-13 3-13 3 5 6 28 32 21 30-6-2-27-4-27-4l14 9c8 7 10 11 10 11s-6 0-13-3c-6-4-26-3-20 0 6 2 18 12 11 11-7-2-15 3-15 3 23 11 41 45 40 45 0 0-13-10-11-7s17 29 12 25l-24-12c2 3 32 45 37 60 0 0-10-7-19-11 0 0 13 14 16 24 0 0 12 29 12 26" style="fill:#274187;fill-opacity:1" transform="matrix(.13163 0 0 -.13162 8 661)"/>
    <path transform="matrix(.13163 0 0 .13162 8 661)" style="fill:#274187;fill-opacity:1" d="M-64-2582h9004V45H-64z"/>
  </g>
  <path style="fill:#274187" d="M997 264c1 0 18 3 38-3a432 432 0 0 0 78-32c6-2 10-1 11-1 10 6 62 8 62 8v96h-165z"/>
</svg>
