<svg viewBox="0 0 1185.2 666.7" xml:space="preserve" xmlns="http://www.w3.org/2000/svg">
  <g fill="#1d2e53">
    <path d="M345 673c-25-17-69-30-130-32-107-4-10-59 144-71s28-12 18-67c-11-55 174-56 190-56s28 0 47-4-12-9-1-11c17-3 55-4 47-11-8-6-90-11-94-16-5-4-59-55-72-56-6-1-31 3-55 7s-48 9-50 8c-6-2-95-55-103-55-7 0-47 16-58 19-12 3-70 1-73 0-4-1-55-50-81-54l-84-10v409h355"/>
    <path d="M703 417c-10 3-30 6-13 6s136-10 109-2c-26 8-25 11 26 12 0 0 71 13 4 28-66 15-74 37-8 40 67 3 51 31 8 37-44 5-117 7-134 43-18 36 106 29 151 28s95 51 17 58c-13 1-24 3-35 6h365l-1-407-8-1-17-2c-4 0-10 0-14 4s-27 30-30 29c-2-2-49-24-51-23-2 0-64 59-65 58-1-2-22-29-25-27-2 2-26 29-32 29-6 1-27 4-35 0-7-3-42-41-48-37-6 3-125 73-131 70-6-4-68-49-75-46s-41 40-44 38c-3-1-13-14-24-11-12 2-139 57-139 57l173 13h76"/>
    <path d="M1118 235c0 3 1 7 3 9h-2l5 8-5-2c1 3 7 8 7 8l-6-2c3 5 9 9 9 9-5 1-7-1-7-1l7 8c-4-1-8-6-8-6 1 4 5 9 5 9l-5-4c4 8 13 12 13 12-3 2-7-1-7-1l4 5-11-7c6 10 22 19 22 19-8 1-11-3-11-3l6 7c-5-2-12-10-12-10 2 6 10 15 10 15l-11-7c4 8 16 17 16 17l-5-2c3 4 11 8 11 8-11-1-19-10-19-10 6 12 24 19 24 19-13 5-19-5-19-5l10 16c-6-2-10-7-10-7 4 8 14 14 14 14-10-2-18-9-18-9 11 16 30 14 29 15-3 3-14 2-14 2 2 3 8 6 8 6l-10-3c5 7 14 11 14 11l-10-2s1 3 8 6c3 2 8 2 10 2-13 5-25-1-25-1 6 7 15 11 15 11-14-1-16-4-16-4 1 4 5 6 5 6-7-2-13-7-13-7 4 7 12 10 12 10-14-2-19-7-19-7 2 4 5 6 5 6-13-6-14-9-14-9-10 12-21 12-21 12 4-1 11-8 11-8l-14 2c6-1 12-8 12-8-17 6-25 5-25 5 11-3 13-7 14-7-9 2-14 0-14 0 13-2 19-9 19-9-14 5-17 3-17 3 6 0 10-5 10-5-9 2-16 1-16 1 20-6 23-14 23-14-8 3-17 4-17 4 12-4 17-11 17-11-6 3-9 2-9 2l4-3h-1l-13 3c19-8 28-17 28-17l-14 5c7-3 10-8 10-8l-15 4c7-3 11-9 11-9l-4 1c6-2 13-9 13-9l-10 5c3-2 3-4 3-4l-8 2c9-3 16-11 16-11l-7 3c3-2 3-4 3-4l-8 3c8-4 15-13 15-13l-6 3 2-4-7 3 3-3h-5c12-4 14-12 14-12l-5 2c2-1 2-3 2-3h-5l9-6-3-1 5-6-6 1a15 15 0 0 0 5-5l-2 1h-5c2 0 4-2 3-2l-4-1c5-2 9-9 9-9l-2 1 2-5-5 2 8-12-4 2 3-5 3-5M180 171l4 21c0 3 2 11 5 13l-4 1c1 4 10 14 10 14l-11-3c3 5 16 12 16 12-6 0-12-3-12-3 6 8 20 15 20 15-12 1-16-3-16-3 6 8 15 14 15 14-9-1-18-9-18-9 2 5 11 14 12 14-8-2-12-6-12-6 8 14 30 20 30 20-7 3-15-1-15-1 1 3 8 8 8 8-8-2-24-12-24-12 13 17 48 31 48 32-17 1-23-5-23-5l12 11c-11-4-26-16-26-16 4 10 22 25 22 25-22-9-24-12-24-12 8 13 35 28 35 28l-10-3c5 6 23 14 23 14-24-2-42-17-42-17 14 19 53 32 53 32-28 7-43-9-42-10 6 11 21 28 21 28-11-4-21-11-21-11 9 12 32 22 32 22-23-3-42-14-42-14 26 26 67 24 67 24-7 5-32 4-32 4 4 4 17 10 17 10-14-2-23-6-23-6 12 13 32 19 32 19-11 1-21-3-21-3s1 5 17 10c7 3 17 4 22 4-30 7-56-2-56-2 13 11 34 18 34 18-31-1-36-6-36-6 2 5 12 10 12 10-17-4-29-12-29-12 8 11 26 17 26 17-31-4-42-12-42-12 4 6 10 10 10 10-29-9-30-16-30-16-23 20-48 22-48 22 10-3 24-15 24-15-12 3-30 4-30 4 13-3 26-13 26-13-37 9-56 7-56 7 26-4 31-12 31-12-20 5-30 1-30 1 29-3 42-15 42-15-31 9-37 6-37 6 13-2 21-10 21-10-19 4-34 3-34 3 43-10 50-24 51-24-19 6-38 6-38 6 26-6 37-18 37-18-14 5-19 4-19 4 6-2 7-5 7-5h-1c-14 3-29 4-29 4 42-12 62-27 62-27l-31 7c15-4 23-13 23-13-21 6-34 7-34 7 16-5 25-15 25-15l-9 1c13-4 28-15 28-15l-21 8c7-3 6-6 6-6-5 2-17 3-17 3 19-4 35-18 35-18l-15 5c6-3 5-6 5-6l-17 4c18-7 33-21 33-21l-12 4c4-2 4-5 4-5l-15 4 6-4c-10 1-11-1-11-1 26-6 31-21 31-21-9 5-12 4-12 4 4-1 5-5 5-5-7 2-11 0-11 0 7-1 20-11 20-10l-6-1c2-2 13-11 10-11l-13 2a37 37 0 0 0 12-7l-6 1h-10c3-1 9-4 6-4l-8-1c11-4 19-16 19-16l-5 3 6-9-12 4c1-1 15-15 18-21 0 0-3 4-7 6 0 0 5-8 7-15 0 0-1-4 1-8 1-3 2-9 1-16"/>
    <path d="M132 447c-1 0 26 10 56 2-6 0-16-1-22-3-17-6-18-10-18-10s11 3 22 3c0 0-21-6-32-19 0 0 9 4 22 5 0 0-12-5-17-9 0 0 26 1 32-4 0-1-40 2-66-24 0 0 19 11 42 14-1 0-24-10-32-23 0 0 9 8 21 11 0 0-15-16-22-27 2 2 16 17 43 10 0-1-40-13-54-32 0 0 18 15 43 16 0 0-18-7-24-13l11 3s-28-16-36-28l25 12s-19-15-23-25c0 0 16 12 26 16l-12-11c1 0 8 5 24 4 0 0-36-15-48-31 0 0 16 9 23 11l-8-7s9 4 16 1c0 0-22-7-31-20 0 0 4 4 12 6 0 0-9-9-11-14 0 0 8 8 18 9 0 0-10-6-15-14 0 0 4 4 15 3 0 0-14-8-20-16 0 0 6 4 12 4 0 0-12-8-16-13l12 3s-9-10-10-13l4-1c-3-3-6-10-6-13l-3-21-1 15-2 8c-1 7-7 15-7 15 5-1 7-5 7-5-2 5-16 20-17 21l11-5c2-1-5 8-5 9l5-2s-9 12-19 15l7 2c3-1-2 3-5 3-3 1 6 2 9 0l6-1-5 4-6 3 13-1c3-1-8 8-10 10 0 0 3 2 6 1 0 0-14 10-20 10 0 0 3 2 11 1 0 0-1 3-6 5 0 0 4 0 12-4 0 0-4 14-30 21 0 0 0 2 11 0 0 0-3 4-7 5 0 0 7-1 16-5 0 0-1 4-5 6l12-4s-14 14-33 21l18-5s0 4-6 6l15-5s-16 15-34 19l17-3s0 3-7 6l21-8s-14 11-27 15l9-1s-9 10-26 14c0 0 14-1 34-7 0 0-8 10-22 14l30-7s-20 15-62 27c0 0 16-1 30-4h1s-2 3-7 4c0 0 5 2 19-3 0 0-12 11-37 18 0 0 19-1 37-6 0 0-7 12-46 22v2l29-3s-7 8-20 9c0 0 5 3 36-6 0 0-13 12-41 16 0 0 10 4 30-1 0 0-6 8-31 12 0 0 18 1 55-8 1 0-13 11-26 14l31-4s-15 11-24 14c0 0 24-1 47-21 0 0 2 6 31 16 0 0-7-4-11-10 0 0 12 8 43 11 0 0-19-6-27-17 0 0 13 9 29 12 0 0-9-4-12-10 0 0 6 6 37 7 0 0-21-8-34-19M1032 228l4 22c0 2 2 10 5 13h-4c1 4 10 14 10 14l-11-3c3 5 16 13 16 13l-13-4c7 8 21 15 21 15-12 1-16-2-16-2 5 8 15 13 15 13-10-1-18-9-18-9 2 6 11 14 11 14-8-2-11-5-11-5 8 13 30 19 30 20-7 2-16-2-16-2l9 8c-8-2-24-11-24-11 12 16 48 31 48 31-17 1-24-5-23-5 2 4 12 11 12 11-11-3-27-16-27-16 4 11 23 26 23 26-22-9-25-13-25-13 8 13 36 28 36 28l-11-2c6 6 24 13 24 13-24-1-42-16-42-16 14 19 53 31 53 31-28 8-43-9-42-9 6 11 21 27 21 27-11-3-21-11-21-11 9 13 32 23 32 23-23-3-42-14-42-14 26 25 67 23 66 23-6 5-31 4-31 5 4 4 16 9 16 9-13-1-22-5-22-5 11 12 32 19 32 19-11 0-22-3-22-3s2 4 18 10c7 2 16 3 22 3-30 8-56-2-56-2 13 11 34 19 34 19-31-2-37-7-37-7 3 6 12 10 12 10-16-3-28-12-28-12 7 11 26 17 26 17-31-3-42-11-42-11 3 5 10 10 10 10-29-10-31-16-31-16-23 19-47 21-47 21 10-3 24-14 24-14l-30 3c12-2 26-13 26-13-37 9-56 8-56 8 25-5 31-12 31-12-20 5-30 0-30 0 29-3 41-15 41-15-30 9-36 6-36 6 13-1 21-9 21-9-20 3-34 2-34 2 43-10 50-24 50-24-18 6-37 6-37 6 26-6 37-17 37-17-14 4-19 3-19 3 6-1 7-5 7-5h-1c-14 4-30 5-30 5 42-13 63-28 63-28-19 6-31 8-31 8 15-5 22-14 22-14-20 6-34 7-33 7 16-5 25-14 25-14h-9c13-3 27-14 27-14-12 6-21 8-21 8 7-4 7-6 7-6l-17 3c18-5 35-19 34-19l-14 5c6-3 5-6 5-6l-18 5c19-7 34-22 34-22l-13 5c4-3 5-6 5-6-8 4-16 4-16 4 4-1 7-4 7-4h-11c26-7 31-21 31-21l-12 4c4-2 5-5 5-5-7 1-11-1-11-1 6 0 20-10 20-10-3 1-6-1-6-1 2-2 13-11 10-10l-13 1a37 37 0 0 0 11-7l-5 1h-10c3-1 9-4 5-4-3 1-7-1-7-1 11-4 19-16 19-16l-5 3c1-1 8-10 5-9l-11 4c1-1 15-15 17-20 0 0-2 4-6 5 0 0 5-8 7-15 0 0-1-4 1-8 1-3 2-9 1-16"/>
    <path d="M131 381h1054v286H131z"/>
  </g>
</svg>
