<svg viewBox="0 0 1185 667" xml:space="preserve" xmlns="http://www.w3.org/2000/svg">
  <g fill="#14191f">
    <path d="M190 673c20-15 48-35 79-55 45-29 19-11 33-34s66-11 77-33 21-16 38-26c18-10 37-17 57-28 19-10 12-10 26-25 14-14 40-20 54-27 14-6 50-10 41-10s-40-15-67-21c-28-5-155-2-185 4s-39 11-62 14l-145 7c-42 2-57 14-87 13-16-1-34-4-49-4l-9-1-1 226h200M822 669c68-3 159-1 223 0l74 2 23 2h51V448l-19-1c-24-3-33-8-63-14s-51-12-76-18c-24-7-42-2-59 7-17 8-22 2-49 7 0 0-57 18-82 45-24 27 8 34-16 64-25 29-37 24-77 46-40 21-84 26-109 39-24 13 66 50 179 46"/>
    <path d="M102 344c-1 2 3 12 6 14h-3c0 3 7 10 7 10l-8-2c2 3 11 9 11 9-4 0-9-3-9-3 5 6 15 11 15 11-8 1-11-2-11-2 3 6 10 10 10 10-7-1-13-6-13-6 2 4 9 10 9 10-6-2-9-5-9-5 6 10 22 15 22 15-5 2-11-1-11-1l6 5c-6-1-17-8-17-8 9 12 34 22 34 22-12 1-17-3-17-3l9 8c-8-3-19-11-19-11 3 7 16 17 16 17l-17-8c5 9 25 20 25 20l-7-2c4 4 16 9 16 9-17-1-30-11-30-11 10 13 38 22 38 22-20 5-30-7-30-7l15 20c-8-3-15-8-15-8 6 9 23 16 23 16-16-2-30-10-30-10 19 18 47 17 47 17-4 3-22 3-22 3 3 3 12 6 12 6-10 0-16-3-16-3 8 9 22 13 22 13l-15-2s1 3 13 7c4 2 11 3 15 3-21 5-40-2-40-2 10 8 25 13 25 13-22-1-26-4-26-4 2 4 8 7 8 7-11-3-20-9-20-9 5 8 18 12 18 12-22-2-30-8-30-8 3 4 8 7 8 7-21-7-22-11-22-11-16 14-34 15-34 15 7-2 18-10 18-10l-22 3c9-2 18-10 18-10-26 7-39 5-39 5 18-2 22-8 22-8-14 3-21 0-21 0 20-2 29-10 29-10-22 6-26 4-26 4 9-1 15-7 15-7-14 3-24 2-24 2 30-7 36-17 36-17-13 4-27 4-27 4 18-4 26-12 26-12-10 3-13 2-13 2 4-1 5-3 5-3h-1l-21 3c30-9 44-19 44-20l-21 6c10-3 15-10 15-10-14 4-24 5-24 5 12-3 19-10 19-10h-7c9-2 20-10 20-10l-15 6c5-3 4-5 4-5l-12 2c13-3 25-13 25-13l-11 4c4-2 4-4 4-4l-13 3c14-5 24-15 24-15l-9 3 4-4-11 3 4-3c-7 1-8-1-8-1 19-4 22-14 22-14-6 3-8 2-8 2l4-3c-6 1-8-1-8-1 4 0 14-7 14-7h-4c1-2 9-8 7-8l-9 1a27 27 0 0 0 8-5l-5 1h-6c2-1 6-3 3-3h-5c8-3 14-12 14-12l-4 2c1-1 6-7 4-6l-8 3c1-1 11-11 12-15l-4 4 4-11 3-6M1167 516s4 3 26 4c-4-1-16-6-24-13 0 0 10 4 24 4v-5c-11-4-12-7-12-7s5 2 12 2v-1c-5-2-14-6-19-12l15 3-12-6 16-1v-3c-10-1-28-4-40-16 0 0 13 8 30 10 0 0-17-7-23-16 0 0 7 5 15 8 0 0-11-12-15-20 1 2 11 12 30 7 0 0-28-9-38-22 0 0 13 10 30 11 0 0-13-5-17-9l8 2c0-1-20-11-25-20l17 8s-13-10-16-18c0 0 11 9 19 12l-9-8c1 0 5 4 17 3 0 0-26-10-34-22 0 0 11 7 16 8l-5-5s6 2 11 1c0-1-16-5-22-15 0 0 3 3 8 4l-8-9s6 5 13 6c0 0-7-4-10-10 0 0 2 3 10 2 0 0-9-5-14-11 0 0 5 3 9 3 0 0-9-6-11-9l8 2s-7-7-7-10h2l-6-13-2 5c-1 5-5 11-5 11 3-1 5-4 5-4l-12 15 8-3-4 6 4-2s-6 9-14 11c0 0 3 2 5 1 3 0-1 2-3 3h6l4-1-3 3-5 2 10-1c2 0-6 6-8 7 0 0 3 2 5 1 0 0-10 7-14 7 0 0 2 2 7 1 0 0 0 2-4 3 0 0 3 1 9-3 0 1-3 11-22 15 0 0 1 2 8 1l-5 3 12-3-4 4 9-4s-10 11-24 16l13-4s0 3-4 5l11-4s-12 10-25 13l12-2s0 2-5 4l15-5s-10 8-19 10h6s-6 7-18 10c0 0 10-1 24-5 0 0-5 7-16 10l22-6s-14 11-44 20l21-3h1s-1 2-5 3c0 0 3 1 13-2 0 0-8 8-26 12 0 0 13 0 26-4 0 0-5 10-36 17l25-2s-6 6-15 7c0 0 4 2 26-4 0 0-9 8-30 10 0 0 7 3 22 0 0 0-4 5-22 8 0 0 13 1 39-5 0 0-9 8-18 9 0 0 12 0 21-2 0 0-10 8-17 10 0 0 18-1 34-15 0 0 1 4 22 11 0 0-5-3-8-7 0 0 8 6 30 8 0 0-13-4-18-12 0 0 8 6 20 9 0 0-7-3-9-7M190 448l358-1 11-5 11-2 15-3 11-1 47 5c14 1 28-8 46-8 10 1 40-13 51-12 17 1 49-8 65-7 44 0 54 5 90 15l18 4h12c4 3-8 14-8 14v226H190z"/>
  </g>
</svg>
