<svg width="1800" height="1800" xmlns="http://www.w3.org/2000/svg">
  <g style="fill:#dcbb00;fill-opacity:1">
    <path d="M22189 8552a774 774 0 0 1-476 145c-188 0-348-48-482-145-50-39-90-79-121-121a769 769 0 0 1-465 141c-160-1-298-36-412-107-115-72-173-157-173-257 1-100 58-186 173-257a769 769 0 0 1 413-107 769 769 0 0 1 459 136c30-48 72-94 126-136a800 800 0 0 1 482-145c187 0 346 48 476 145 134 97 201 215 201 354s-67 257-201 354zm-1434-1003c-62-52-92-115-92-189 0-75 30-138 92-189 61-52 135-78 223-78s163 26 224 78c61 51 92 114 92 189 0 74-31 137-92 189-61 51-136 77-224 77s-162-26-223-77m-4056 8252c27 19 40 45 40 77s-13 60-40 82c-23 20-54 29-92 29-38 1-71-9-97-29-23-22-35-50-35-82s12-58 35-77c26-23 59-34 97-34s69 11 92 34m1222 814c-58 48-126 72-207 72-80 0-149-24-206-72-58-49-86-107-86-175s28-126 86-174c57-49 126-73 206-73 81 0 149 24 207 73 57 48 86 106 86 174s-29 126-86 175m1761-606a866 866 0 0 1-436 102c-172 0-319-34-442-102-118-71-178-155-178-252s60-179 178-247a865 865 0 0 1 442-107c102 0 194 13 275 39 91 64 183 117 276 160 46 45 68 97 68 155 0 97-61 181-183 252m4968-6154c0-39 17-73 51-102 35-29 75-43 121-43s86 14 120 43c35 29 52 63 52 102s-17 73-52 102c-34 29-74 43-120 43s-86-14-121-43c-34-29-51-63-51-102m-6075-4472a701 701 0 0 1-453-160 486 486 0 0 1-190-383c0-149 63-276 190-383a679 679 0 0 1 453-160c176 0 327 54 453 160a486 486 0 0 1 189 383c0 149-63 276-189 383a700 700 0 0 1-453 160" style="fill:#dcbb00;fill-opacity:1;fill-rule:nonzero;stroke:none" transform="matrix(0.13333333,0,0,-0.13333333,-1660.2378,2335.2389)"/>
    <g style="fill:#dcbb00;fill-opacity:1">
      <path d="M24701 9753c-34 29-51 63-51 102s17 73 51 102c35 29 75 43 121 43 46 1 86-14 120-43 35-29 52-63 52-102s-17-72-52-102c-34-29-74-43-120-43s-86 14-121 43zm-212 3111c19 50 34 98 46 146l40-175c-26 15-55 25-86 29m-1927 1444c-176 436-465 527-867 271-191-171-352-171-482 0-344 272-401 595-172 969-457 194-872 211-1244 54-93-43-185-96-276-160-55-42-111-89-166-141-73-239-274-313-602-223 428-807 525-1356 292-1647-577-271-1620 595-1559 278 15-193 525-351 219-486-948 2287-1926 1510-3192 5-1243-2817-48-4570 3586-5258 283 123 518 452 705 989 333-29 526 176 580 615-138 565-331 993-580 1284-287 268-224 486 189 654 161 100 161 289 0 567-15 272 171 451 557 538 348-87 669 102 964 567 34-381 395-720 1084-1018 134 117 239 57 315-179v-363l574-654c501-97 734 9 700 319-306 178-610 501-912 969-264 537-144 747 361 630l1153-1037c317-249 611-235 884 44 3-333-22-682-75-1047-237-1595-870-2891-1899-3886-1028-991-2233-1539-3614-1642l-189-10c46-23 90-52 132-87a486 486 0 0 0 189-383c0-149-63-276-189-383a679 679 0 0 0-453-160c-176 0-327 54-453 160a486 486 0 0 0-190 383c0 149 63 276 190 383 53 45 112 81 177 106-1093 107-2137 600-3132 1478-1235 1092-2013 3147-2334 6164a6701 6701 0 0 1-345-2171c0-1841 654-3411 1962-4710 1312-1302 2895-1953 4750-1953 1855 1 3436 651 4744 1953 1312 1299 1968 2869 1968 4710s-656 3413-1968 4715c-876 872-1876 1450-3000 1734 918-710 1815-1555 2690-2534 314-350 557-740 729-1168-207 153-413 159-620 20-99 61-185 77-258 48l-923 693" style="fill:#dcbb00;fill-opacity:1;fill-rule:nonzero;stroke:none" transform="matrix(0.13333333,0,0,-0.13333333,-1660.2378,2335.2389)"/>
      <path style="fill:#dcbb00;fill-opacity:1;fill-rule:nonzero;stroke:none;stroke-width:.133333" d="M902 15c-247 0-458 87-633 260A865 865 0 0 0 53 614c43 402 147 676 311 822a736 736 0 0 0 418 197c11-5 23-7 37-7 16 0 30 3 43 9l25-1c184-14 344-87 482-219a876 876 0 0 0 253-518c7-49 10-95 10-140-37 38-76 40-118 6l-154-138c-67-16-83 12-48 84 40 62 81 105 122 129 4 42-27 56-94 43l-76-87v-49c-10-31-24-39-42-24-92-39-140-85-145-135-39 62-82 87-128 75-52 12-77 36-74 72 21 37 21 62 0 75-56 23-64 52-26 88 33 38 59 96 78 171-8 58-33 86-78 82-25 71-56 115-94 132-484-92-644-326-478-701 169-201 317-149 443 156 41-18 60-40 58-66-8-42 26-81 103-117 32-39 19-112-39-220 44 12 71 2 81-30l22-18c-11 3-23 5-37 5-23 0-42-5-59-15-16-9-23-20-23-32 0-13 7-25 23-34 17-9 36-14 59-14s43 5 58 14c17 9 25 21 25 34 0 7-3 14-9 20 49-21 105-18 166 7-31 50-23 93 23 130 17 22 38 22 64 0 53-35 92-22 115 36l123 92c10-4 22-2 35 7 27-19 55-18 82 2-23-57-55-109-97-156a2714 2714 0 0 0-358-337 944 944 0 0 0-233-28ZM704 118c11 0 20 4 28 10 7 7 11 14 11 23s-4 17-11 24c-8 6-17 9-28 9s-20-3-28-9c-7-7-11-15-11-24s4-16 11-23c8-6 17-10 28-10zm-148 94c5 0 10 1 13 3 3 3 5 7 5 11 0 5-2 8-5 11s-8 4-13 4-9-1-13-4c-3-3-4-6-4-11 0-4 1-8 4-11 4-2 8-3 13-3zm1057 397c-1 6-3 13-6 19l12 4-6-23zm-376 575c25 0 46 6 64 19 17 13 26 29 26 47 0 19-9 35-26 48-18 12-39 19-64 19s-46-7-64-19c-7-6-13-12-17-19l-6 4c-15 10-34 15-55 15-22 0-40-5-55-15-16-9-23-21-23-34s7-25 23-34c15-10 33-14 55-14a102 102 0 0 1 62 18c4-5 9-11 16-16 18-13 39-19 64-19zm-98 143c12 0 22 3 30 10s12 15 12 25-4 18-12 25-18 11-30 11-21-4-30-11c-8-7-12-15-12-25s4-18 12-25c9-7 18-10 30-10z" transform="matrix(0.13333333,0,0,-0.13333333,-1660.2378,2335.2389) matrix(7.5000002,0,0,-7.5000002,12436.364,17575.795)"/>
    </g>
    <path d="M17110 14273c-108-2-110-4-112-116-2 112-4 114-111 116 107 2 109 4 111 117 2-113 4-115 112-117" style="fill:#dcbb00;fill-opacity:1;fill-rule:nonzero;stroke:none" transform="matrix(0.13333333,0,0,-0.13333333,-1660.2378,2335.2389)"/>
    <path d="M16499 13972c-142-3-144-5-147-153-3 148-5 150-147 153 142 3 144 6 147 154 3-148 5-151 147-154" style="fill:#dcbb00;fill-opacity:1;fill-rule:nonzero;stroke:none" transform="matrix(0.13333333,0,0,-0.13333333,-1660.2378,2335.2389)"/>
  </g>
  <path d="M1298 1195c-17-13-38-19-63-19s-46 6-64 19c-7 5-12 11-16 16l-7-4c-15-10-34-15-55-15-22 0-40 5-55 15-16 9-23 21-23 34s7 25 23 34c15 10 33 14 55 14 21 0 40-4 55-14l6-4c4 7 10 13 17 18 18 13 39 20 64 20s46-7 63-20c18-13 27-28 27-47 0-18-9-34-27-47zm-191 134c-8 7-12 15-12 25s4 18 12 25 18 10 30 10 22-3 30-10 12-15 12-25-4-18-12-25-18-11-30-11-22 4-30 11M567 229c3-3 5-7 5-11s-2-8-5-11c-4-2-8-4-13-4s-9 2-13 4c-3 3-4 7-4 11s1 8 4 11c4 3 8 4 13 4s9-1 13-4m162-109c-7-6-16-10-27-10s-20 4-28 10a29 29 0 0 0 0 47c8 6 17 9 28 9s20-3 27-10c8-6 12-14 12-23s-4-17-12-23m235 81c-16-9-35-14-58-14s-42 5-59 14c-16 9-23 20-23 33s7 24 23 33c17 10 36 14 59 14 14 0 26-1 37-5 12-8 24-15 37-21 6-6 9-13 9-21 0-13-8-24-25-33m663 820c0 5 2 10 7 14 4 4 9 6 16 6 6 0 11-2 16-6 4-4 7-9 7-14s-3-9-7-13c-5-4-10-6-16-6-7 0-12 2-16 6-5 4-7 8-7 13m-810 597a93 93 0 0 0-61 21 65 65 0 0 0-25 51c0 20 8 37 25 51s37 21 61 21c23 0 43-7 60-21s25-31 25-51-8-37-25-51a93 93 0 0 0-60-21" style="fill:#dddbd9;fill-opacity:1;fill-rule:nonzero;stroke:none;stroke-width:.133333"/>
  <path d="M1634 1035c-5-4-7-9-7-14s2-9 7-13c4-4 9-6 16-6 6 0 11 2 16 6 4 4 7 8 7 13s-3 10-7 14c-5 4-10 6-16 6-7 0-12-2-16-6zm-29-415 6-19 6 23-12-4m-257-193c-23-58-62-70-115-36-26 23-47 23-65 0-45-36-53-79-22-129-61-26-117-28-166-7a237 237 0 0 0-59 40c-10 32-37 42-81 30 57 107 70 181 39 219-77 37-111 76-103 118 2 26-17 48-58 66-126-305-274-357-443-156-166 375-6 609 478 701 38-17 69-61 94-132 45 4 70-24 77-82-18-76-44-133-77-172-38-35-30-64 25-87 22-13 22-38 0-75-2-37 23-60 75-72 46 12 89-14 128-76 5 51 53 96 145 136 18-15 32-7 42 24v48l76 88c67 13 98-2 94-43-41-24-82-67-122-129-35-72-19-100 48-84l154 138c42 33 81 31 118-6 0 45-3 91-10 140a876 876 0 0 1-253 518 758 758 0 0 1-482 219l-26 1c7 3 12 7 18 12a65 65 0 0 1 0 102 91 91 0 0 1-60 21c-24 0-44-7-61-21a65 65 0 0 1-25-51c0-20 8-37 25-51 7-6 15-11 24-14a736 736 0 0 1-418-197C198 1282 94 1008 51 606 20 696 5 792 5 895c0 246 87 455 262 628a866 866 0 0 0 633 261c247 0 458-87 633-261a851 851 0 0 0 262-628c0-245-88-455-262-628a858 858 0 0 0-400-232c122 95 241 208 358 338 42 47 74 99 97 156-27-20-55-21-82-3-13-8-25-10-35-6l-123-93" style="fill:#dadedd;fill-opacity:1;fill-rule:nonzero;stroke:none;stroke-width:.133333"/>
  <path d="M702 110c11 0 20 4 27 10 8 6 12 14 12 23s-4 17-12 23c-7 7-16 10-27 10s-20-3-28-10a30 30 0 0 1 0-47c8-5 17-9 28-9zM572 218c0 4-2 8-5 11-4 3-8 4-13 4s-9-1-13-4c-3-3-4-7-4-11s1-8 4-11c4-2 8-4 13-4s9 2 13 4c3 3 5 7 5 11m523 1136c0-10 4-18 12-25s18-11 30-11 22 4 30 11 12 15 12 25-4 18-12 25-18 10-30 10-22-3-30-10-12-15-12-25m140-178c25 0 46 6 63 19 18 13 27 29 27 47 0 19-9 34-27 47-17 13-38 20-63 20s-46-7-64-20c-7-5-13-11-17-18l-6 4c-15 10-34 14-55 14-22 0-40-4-55-14-16-9-23-21-23-34s7-25 23-34c15-10 33-15 55-15a102 102 0 0 1 62 19c4-5 9-11 16-16 18-13 39-19 64-19M906 187c23 0 42 5 58 14 17 9 25 20 25 33 0 8-3 15-9 21 49-21 105-19 166 7-31 50-23 93 22 129 18 23 39 23 65 0 53-34 92-22 115 36l123 93c10-4 22-2 35 6 27-18 55-17 82 3-23-57-55-109-97-156a2714 2714 0 0 0-358-338l-60-13C1017 12 960 7 900 7 653 7 442 93 267 267A865 865 0 0 0 51 606c43 402 147 676 311 822a736 736 0 0 0 418 197c11-5 23-7 37-7 15 0 30 3 42 9l26-1c184-14 344-87 482-219a876 876 0 0 0 253-518c7-49 10-95 10-140-37 37-76 39-118 6l-154-138c-67-16-83 12-48 84 40 62 81 105 122 129 4 41-27 56-94 43l-76-88v-48c-10-31-24-39-42-24-92-40-140-85-145-136-39 62-82 88-128 76-52 12-77 35-75 72 22 37 22 62 0 75-55 23-63 52-25 87 33 39 59 96 77 172-7 58-32 86-77 82-25 71-56 115-94 132-484-92-644-326-478-701 169-201 317-149 443 156 41-18 60-40 58-66-8-42 26-81 103-118 31-38 18-112-39-219 44 12 71 2 81-30l22-19c-11 4-23 5-37 5-23 0-42-4-59-14-16-9-23-20-23-33s7-24 23-33c17-9 36-14 59-14m705 414-6 19 12 4-6-23" style="fill:#f7f7f7;fill-opacity:1;fill-rule:nonzero;stroke:none;stroke-width:.133333"/>
  <path d="M671 507c-95 2-97 4-99 104-2-100-3-102-99-104 96-2 97-3 99-103 2 100 4 101 99 103" style="fill:#fff;fill-opacity:1;fill-rule:nonzero;stroke:none;stroke-width:.133333"/>
  <path d="M621 432c-14 0-14 1-15 16 0-15 0-16-14-16 14 0 14 0 14-15 1 15 1 15 15 15" style="fill:#fff;fill-opacity:1;fill-rule:nonzero;stroke:none;stroke-width:.133333"/>
  <path d="M540 472c-19 1-19 1-20 21 0-20 0-20-19-21 19 0 19 0 19-20 1 20 1 20 20 20" style="fill:#fff;fill-opacity:1;fill-rule:nonzero;stroke:none;stroke-width:.133333"/>
</svg>
