<svg viewBox="0 0 302 302" style="enable-background:new 0 0 301.912 301.912" xml:space="preserve" xmlns="http://www.w3.org/2000/svg">
  <path d="M245 137c15 0 30-6 40-17 15-14 20-36 15-56a3 3 0 0 0-6-1l-36 36c-2-1-8-4-18-14a62 62 0 0 1-14-18l36-36a3 3 0 0 0-1-5 57 57 0 0 0-56 14c-32 31-12 63-12 63l-35 35-29-21c-2-2-5-2-7 0l-18-19 3-4c3-3 4-7 2-10l10-14a56 56 0 0 1 45-18h6c2-1 2-4 0-5-9-6-19-9-29-9-21-2-43 6-60 19-3-1-7-1-9 2L43 88c-3 3-3 7-1 10l-9 9a17 17 0 0 0-16 4L5 123a16 16 0 0 0 0 23l15 15a16 16 0 0 0 23 0l12-11a16 16 0 0 0 5-15l9-10c3 1 7 1 9-2l4-3 19 18c-2 2-2 5 0 7l21 28-66 66a21 21 0 0 0 30 30l65-65 36 33c15 12 30 25 44 40l5 2 5-2 20-20a7 7 0 0 0 0-10c-15-14-28-29-40-44l-33-36 34-34c7 3 15 4 23 4z" style="fill:#fff"/>
  <g/>
  <g/>
  <g/>
  <g/>
  <g/>
  <g/>
  <g/>
  <g/>
  <g/>
  <g/>
  <g/>
  <g/>
  <g/>
  <g/>
  <g/>
</svg>
